<svg width="242" height="100" viewBox="0 0 242 100" fill="none" xmlns="http://www.w3.org/2000/svg">
<mask id="path-1-outside-1_2_57" maskUnits="userSpaceOnUse" x="-0.114064" y="9" width="242" height="33" fill="black">
<rect fill="white" x="-0.114064" y="9" width="242" height="33"/>
<path d="M14.8 40V14.44H2V11.2H30.8V14.44H18.04V40H14.8ZM37.0716 40V16C37.0716 15.12 37.2849 14.32 37.7116 13.6C38.1382 12.8533 38.7116 12.2667 39.4316 11.84C40.1782 11.4133 40.9916 11.2 41.8716 11.2H61.0716C61.9516 11.2 62.7516 11.4133 63.4716 11.84C64.2182 12.2667 64.8049 12.8533 65.2316 13.6C65.6582 14.32 65.8716 15.12 65.8716 16V40H62.6316V29.48H40.3116V40H37.0716ZM40.3116 26.24H62.6316V16C62.6316 15.5733 62.4716 15.2133 62.1516 14.92C61.8582 14.6 61.4982 14.44 61.0716 14.44H41.8716C41.4449 14.44 41.0716 14.6 40.7516 14.92C40.4582 15.2133 40.3116 15.5733 40.3116 16V26.24ZM97.9491 40L88.5491 28.8H92.7891L102.229 39.96V40H97.9491ZM73.6291 40V11.24H97.6291C98.5091 11.24 99.3091 11.4667 100.029 11.92C100.776 12.3467 101.362 12.92 101.789 13.64C102.216 14.36 102.429 15.16 102.429 16.04V24.48C102.429 25.36 102.216 26.16 101.789 26.88C101.362 27.6 100.776 28.1867 100.029 28.64C99.3091 29.0667 98.5091 29.28 97.6291 29.28H76.8691V40H73.6291ZM78.4291 26H97.6291C98.0557 26 98.4157 25.8533 98.7091 25.56C99.0291 25.2667 99.1891 24.9067 99.1891 24.48V16.04C99.1891 15.6133 99.0291 15.2533 98.7091 14.96C98.4157 14.64 98.0557 14.48 97.6291 14.48H78.4291C78.0024 14.48 77.6291 14.64 77.3091 14.96C77.0157 15.2533 76.8691 15.6133 76.8691 16.04V24.48C76.8691 24.9067 77.0157 25.2667 77.3091 25.56C77.6291 25.8533 78.0024 26 78.4291 26ZM109.917 40V16C109.917 15.12 110.13 14.32 110.557 13.6C110.984 12.8533 111.557 12.2667 112.277 11.84C113.024 11.4133 113.837 11.2 114.717 11.2H133.917C134.797 11.2 135.597 11.4133 136.317 11.84C137.064 12.2667 137.65 12.8533 138.077 13.6C138.504 14.32 138.717 15.12 138.717 16V40H135.477V29.48H113.157V40H109.917ZM113.157 26.24H135.477V16C135.477 15.5733 135.317 15.2133 134.997 14.92C134.704 14.6 134.344 14.44 133.917 14.44H114.717C114.29 14.44 113.917 14.6 113.597 14.92C113.304 15.2133 113.157 15.5733 113.157 16V26.24ZM146.554 40V11.2H172.834V14.44H149.794V23.96H168.314V27.24H149.794V40H146.554ZM178.661 40V11.2H204.941V14.44H181.901V23.96H200.421V27.24H181.901V40H178.661ZM215.407 40C214.527 40 213.714 39.7867 212.967 39.36C212.247 38.9333 211.674 38.36 211.247 37.64C210.82 36.8933 210.607 36.08 210.607 35.2V16C210.607 15.12 210.82 14.32 211.247 13.6C211.674 12.8533 212.247 12.2667 212.967 11.84C213.714 11.4133 214.527 11.2 215.407 11.2H234.607C235.487 11.2 236.287 11.4133 237.007 11.84C237.754 12.2667 238.34 12.8533 238.767 13.6C239.194 14.32 239.407 15.12 239.407 16V35.2C239.407 36.08 239.194 36.8933 238.767 37.64C238.34 38.36 237.754 38.9333 237.007 39.36C236.287 39.7867 235.487 40 234.607 40H215.407ZM215.407 36.76H234.607C235.034 36.76 235.394 36.6133 235.687 36.32C236.007 36 236.167 35.6267 236.167 35.2V16C236.167 15.5733 236.007 15.2133 235.687 14.92C235.394 14.6 235.034 14.44 234.607 14.44H215.407C214.98 14.44 214.607 14.6 214.287 14.92C213.994 15.2133 213.847 15.5733 213.847 16V35.2C213.847 35.6267 213.994 36 214.287 36.32C214.607 36.6133 214.98 36.76 215.407 36.76Z"/>
</mask>
<path d="M14.8 40V14.44H2V11.2H30.8V14.44H18.04V40H14.8ZM37.0716 40V16C37.0716 15.12 37.2849 14.32 37.7116 13.6C38.1382 12.8533 38.7116 12.2667 39.4316 11.84C40.1782 11.4133 40.9916 11.2 41.8716 11.2H61.0716C61.9516 11.2 62.7516 11.4133 63.4716 11.84C64.2182 12.2667 64.8049 12.8533 65.2316 13.6C65.6582 14.32 65.8716 15.12 65.8716 16V40H62.6316V29.48H40.3116V40H37.0716ZM40.3116 26.24H62.6316V16C62.6316 15.5733 62.4716 15.2133 62.1516 14.92C61.8582 14.6 61.4982 14.44 61.0716 14.44H41.8716C41.4449 14.44 41.0716 14.6 40.7516 14.92C40.4582 15.2133 40.3116 15.5733 40.3116 16V26.24ZM97.9491 40L88.5491 28.8H92.7891L102.229 39.96V40H97.9491ZM73.6291 40V11.24H97.6291C98.5091 11.24 99.3091 11.4667 100.029 11.92C100.776 12.3467 101.362 12.92 101.789 13.64C102.216 14.36 102.429 15.16 102.429 16.04V24.48C102.429 25.36 102.216 26.16 101.789 26.88C101.362 27.6 100.776 28.1867 100.029 28.64C99.3091 29.0667 98.5091 29.28 97.6291 29.28H76.8691V40H73.6291ZM78.4291 26H97.6291C98.0557 26 98.4157 25.8533 98.7091 25.56C99.0291 25.2667 99.1891 24.9067 99.1891 24.48V16.04C99.1891 15.6133 99.0291 15.2533 98.7091 14.96C98.4157 14.64 98.0557 14.48 97.6291 14.48H78.4291C78.0024 14.48 77.6291 14.64 77.3091 14.96C77.0157 15.2533 76.8691 15.6133 76.8691 16.04V24.48C76.8691 24.9067 77.0157 25.2667 77.3091 25.56C77.6291 25.8533 78.0024 26 78.4291 26ZM109.917 40V16C109.917 15.12 110.13 14.32 110.557 13.6C110.984 12.8533 111.557 12.2667 112.277 11.84C113.024 11.4133 113.837 11.2 114.717 11.2H133.917C134.797 11.2 135.597 11.4133 136.317 11.84C137.064 12.2667 137.65 12.8533 138.077 13.6C138.504 14.32 138.717 15.12 138.717 16V40H135.477V29.48H113.157V40H109.917ZM113.157 26.24H135.477V16C135.477 15.5733 135.317 15.2133 134.997 14.92C134.704 14.6 134.344 14.44 133.917 14.44H114.717C114.29 14.44 113.917 14.6 113.597 14.92C113.304 15.2133 113.157 15.5733 113.157 16V26.24ZM146.554 40V11.2H172.834V14.44H149.794V23.96H168.314V27.24H149.794V40H146.554ZM178.661 40V11.2H204.941V14.44H181.901V23.96H200.421V27.24H181.901V40H178.661ZM215.407 40C214.527 40 213.714 39.7867 212.967 39.36C212.247 38.9333 211.674 38.36 211.247 37.64C210.82 36.8933 210.607 36.08 210.607 35.2V16C210.607 15.12 210.82 14.32 211.247 13.6C211.674 12.8533 212.247 12.2667 212.967 11.84C213.714 11.4133 214.527 11.2 215.407 11.2H234.607C235.487 11.2 236.287 11.4133 237.007 11.84C237.754 12.2667 238.34 12.8533 238.767 13.6C239.194 14.32 239.407 15.12 239.407 16V35.2C239.407 36.08 239.194 36.8933 238.767 37.64C238.34 38.36 237.754 38.9333 237.007 39.36C236.287 39.7867 235.487 40 234.607 40H215.407ZM215.407 36.76H234.607C235.034 36.76 235.394 36.6133 235.687 36.32C236.007 36 236.167 35.6267 236.167 35.2V16C236.167 15.5733 236.007 15.2133 235.687 14.92C235.394 14.6 235.034 14.44 234.607 14.44H215.407C214.98 14.44 214.607 14.6 214.287 14.92C213.994 15.2133 213.847 15.5733 213.847 16V35.2C213.847 35.6267 213.994 36 214.287 36.32C214.607 36.6133 214.98 36.76 215.407 36.76Z" fill="black"/>
<path d="M14.8 40H12.8V42H14.8V40ZM14.8 14.44H16.8V12.44H14.8V14.44ZM2 14.44H-1.19209e-07V16.44H2V14.44ZM2 11.2V9.2H-1.19209e-07V11.2H2ZM30.8 11.2H32.8V9.2H30.8V11.2ZM30.8 14.44V16.44H32.8V14.44H30.8ZM18.04 14.44V12.44H16.04V14.44H18.04ZM18.04 40V42H20.04V40H18.04ZM14.8 40H16.8V14.44H14.8H12.8V40H14.8ZM14.8 14.44V12.44H2V14.44V16.44H14.8V14.44ZM2 14.44H4V11.2H2H-1.19209e-07V14.44H2ZM2 11.2V13.2H30.8V11.2V9.2H2V11.2ZM30.8 11.2H28.8V14.44H30.8H32.8V11.2H30.8ZM30.8 14.44V12.44H18.04V14.44V16.44H30.8V14.44ZM18.04 14.44H16.04V40H18.04H20.04V14.44H18.04ZM18.04 40V38H14.8V40V42H18.04V40ZM37.0716 40H35.0716V42H37.0716V40ZM37.7116 13.6L39.4321 14.6196L39.4402 14.606L39.4481 14.5923L37.7116 13.6ZM39.4316 11.84L38.4393 10.1035L38.4256 10.1114L38.412 10.1194L39.4316 11.84ZM63.4716 11.84L62.452 13.5606L62.4656 13.5686L62.4793 13.5765L63.4716 11.84ZM65.2316 13.6L63.4951 14.5923L63.5029 14.606L63.511 14.6196L65.2316 13.6ZM65.8716 40V42H67.8716V40H65.8716ZM62.6316 40H60.6316V42H62.6316V40ZM62.6316 29.48H64.6316V27.48H62.6316V29.48ZM40.3116 29.48V27.48H38.3116V29.48H40.3116ZM40.3116 40V42H42.3116V40H40.3116ZM40.3116 26.24H38.3116V28.24H40.3116V26.24ZM62.6316 26.24V28.24H64.6316V26.24H62.6316ZM62.1516 14.92L60.6773 16.2714L60.736 16.3355L60.8001 16.3943L62.1516 14.92ZM40.7516 14.92L42.1658 16.3342L42.1658 16.3342L40.7516 14.92ZM37.0716 40H39.0716V16H37.0716H35.0716V40H37.0716ZM37.0716 16H39.0716C39.0716 15.4595 39.198 15.0148 39.4321 14.6196L37.7116 13.6L35.991 12.5804C35.3718 13.6252 35.0716 14.7805 35.0716 16H37.0716ZM37.7116 13.6L39.4481 14.5923C39.7078 14.1377 40.0376 13.8056 40.4512 13.5606L39.4316 11.84L38.412 10.1194C37.3855 10.7277 36.5687 11.569 35.9751 12.6077L37.7116 13.6ZM39.4316 11.84L40.4238 13.5765C40.861 13.3267 41.3311 13.2 41.8716 13.2V11.2V9.2C40.652 9.2 39.4954 9.5 38.4393 10.1035L39.4316 11.84ZM41.8716 11.2V13.2H61.0716V11.2V9.2H41.8716V11.2ZM61.0716 11.2V13.2C61.612 13.2 62.0568 13.3264 62.452 13.5606L63.4716 11.84L64.4912 10.1194C63.4464 9.50027 62.2911 9.2 61.0716 9.2V11.2ZM63.4716 11.84L62.4793 13.5765C62.9159 13.826 63.2456 14.1557 63.4951 14.5923L65.2316 13.6L66.9681 12.6077C66.3642 11.551 65.5206 10.7074 64.4638 10.1035L63.4716 11.84ZM65.2316 13.6L63.511 14.6196C63.7452 15.0148 63.8716 15.4595 63.8716 16H65.8716H67.8716C67.8716 14.7805 67.5713 13.6252 66.9521 12.5804L65.2316 13.6ZM65.8716 16H63.8716V40H65.8716H67.8716V16H65.8716ZM65.8716 40V38H62.6316V40V42H65.8716V40ZM62.6316 40H64.6316V29.48H62.6316H60.6316V40H62.6316ZM62.6316 29.48V27.48H40.3116V29.48V31.48H62.6316V29.48ZM40.3116 29.48H38.3116V40H40.3116H42.3116V29.48H40.3116ZM40.3116 40V38H37.0716V40V42H40.3116V40ZM40.3116 26.24V28.24H62.6316V26.24V24.24H40.3116V26.24ZM62.6316 26.24H64.6316V16H62.6316H60.6316V26.24H62.6316ZM62.6316 16H64.6316C64.6316 15.0017 64.2281 14.1103 63.503 13.4457L62.1516 14.92L60.8001 16.3943C60.7784 16.3744 60.7264 16.3178 60.6839 16.2223C60.6411 16.1259 60.6316 16.043 60.6316 16H62.6316ZM62.1516 14.92L63.6259 13.5685C62.9612 12.8435 62.0699 12.44 61.0716 12.44V14.44V16.44C61.0286 16.44 60.9457 16.4305 60.8493 16.3876C60.7537 16.3451 60.6972 16.2932 60.6773 16.2714L62.1516 14.92ZM61.0716 14.44V12.44H41.8716V14.44V16.44H61.0716V14.44ZM41.8716 14.44V12.44C40.8798 12.44 40.0072 12.836 39.3373 13.5058L40.7516 14.92L42.1658 16.3342C42.1664 16.3336 42.1319 16.3672 42.0594 16.3983C41.9846 16.4303 41.9152 16.44 41.8716 16.44V14.44ZM40.7516 14.92L39.3374 13.5058C38.6571 14.186 38.3116 15.0598 38.3116 16H40.3116H42.3116C42.3116 16.02 42.3072 16.0826 42.2737 16.1646C42.2399 16.2477 42.1948 16.3052 42.1658 16.3342L40.7516 14.92ZM40.3116 16H38.3116V26.24H40.3116H42.3116V16H40.3116ZM97.9491 40L96.4171 41.2857L97.0166 42H97.9491V40ZM88.5491 28.8V26.8H84.2594L87.0171 30.0857L88.5491 28.8ZM92.7891 28.8L94.316 27.5084L93.7169 26.8H92.7891V28.8ZM102.229 39.96H104.229V39.2276L103.756 38.6684L102.229 39.96ZM102.229 40V42H104.229V40H102.229ZM73.6291 40H71.6291V42H73.6291V40ZM73.6291 11.24V9.24H71.6291V11.24H73.6291ZM100.029 11.92L98.9634 13.6125L98.9996 13.6353L99.0368 13.6565L100.029 11.92ZM101.789 13.64L103.51 12.6204L103.51 12.6204L101.789 13.64ZM101.789 26.88L103.51 27.8996L103.51 27.8996L101.789 26.88ZM100.029 28.64L101.049 30.3606L101.058 30.3551L101.067 30.3496L100.029 28.64ZM76.8691 29.28V27.28H74.8691V29.28H76.8691ZM76.8691 40V42H78.8691V40H76.8691ZM98.7091 25.56L97.3576 24.0857L97.3256 24.1151L97.2948 24.1458L98.7091 25.56ZM98.7091 14.96L97.2348 16.3114L97.2935 16.3755L97.3576 16.4343L98.7091 14.96ZM77.3091 14.96L75.8949 13.5458L75.8948 13.5458L77.3091 14.96ZM77.3091 25.56L75.8949 26.9742L75.9256 27.0049L75.9576 27.0343L77.3091 25.56ZM97.9491 40L99.481 38.7143L90.081 27.5143L88.5491 28.8L87.0171 30.0857L96.4171 41.2857L97.9491 40ZM88.5491 28.8V30.8H92.7891V28.8V26.8H88.5491V28.8ZM92.7891 28.8L91.2621 30.0916L100.702 41.2516L102.229 39.96L103.756 38.6684L94.316 27.5084L92.7891 28.8ZM102.229 39.96H100.229V40H102.229H104.229V39.96H102.229ZM102.229 40V38H97.9491V40V42H102.229V40ZM73.6291 40H75.6291V11.24H73.6291H71.6291V40H73.6291ZM73.6291 11.24V13.24H97.6291V11.24V9.24H73.6291V11.24ZM97.6291 11.24V13.24C98.1456 13.24 98.5739 13.3672 98.9634 13.6125L100.029 11.92L101.095 10.2275C100.044 9.56614 98.8726 9.24 97.6291 9.24V11.24ZM100.029 11.92L99.0368 13.6565C99.4914 13.9162 99.8234 14.2461 100.068 14.6596L101.789 13.64L103.51 12.6204C102.901 11.5939 102.06 10.7771 101.021 10.1835L100.029 11.92ZM101.789 13.64L100.068 14.6596C100.303 15.0548 100.429 15.4995 100.429 16.04H102.429H104.429C104.429 14.8205 104.129 13.6652 103.51 12.6204L101.789 13.64ZM102.429 16.04H100.429V24.48H102.429H104.429V16.04H102.429ZM102.429 24.48H100.429C100.429 25.0205 100.303 25.4652 100.068 25.8604L101.789 26.88L103.51 27.8996C104.129 26.8548 104.429 25.6995 104.429 24.48H102.429ZM101.789 26.88L100.068 25.8604C99.8167 26.2853 99.4697 26.6398 98.9911 26.9304L100.029 28.64L101.067 30.3496C102.082 29.7335 102.908 28.9147 103.51 27.8996L101.789 26.88ZM100.029 28.64L99.0095 26.9194C98.6143 27.1536 98.1695 27.28 97.6291 27.28V29.28V31.28C98.8486 31.28 100.004 30.9797 101.049 30.3606L100.029 28.64ZM97.6291 29.28V27.28H76.8691V29.28V31.28H97.6291V29.28ZM76.8691 29.28H74.8691V40H76.8691H78.8691V29.28H76.8691ZM76.8691 40V38H73.6291V40V42H76.8691V40ZM78.4291 26V28H97.6291V26V24H78.4291V26ZM97.6291 26V28C98.5692 28 99.4431 27.6544 100.123 26.9742L98.7091 25.56L97.2948 24.1458C97.3238 24.1168 97.3814 24.0717 97.4645 24.0378C97.5465 24.0044 97.609 24 97.6291 24V26ZM98.7091 25.56L100.061 27.0343C100.786 26.3697 101.189 25.4783 101.189 24.48H99.1891H97.1891C97.1891 24.437 97.1986 24.3541 97.2414 24.2577C97.2839 24.1622 97.3359 24.1056 97.3576 24.0857L98.7091 25.56ZM99.1891 24.48H101.189V16.04H99.1891H97.1891V24.48H99.1891ZM99.1891 16.04H101.189C101.189 15.0417 100.786 14.1503 100.061 13.4857L98.7091 14.96L97.3576 16.4343C97.3359 16.4144 97.2839 16.3578 97.2414 16.2623C97.1986 16.1659 97.1891 16.083 97.1891 16.04H99.1891ZM98.7091 14.96L100.183 13.6085C99.5187 12.8835 98.6274 12.48 97.6291 12.48V14.48V16.48C97.5861 16.48 97.5032 16.4705 97.4068 16.4276C97.3112 16.3852 97.2547 16.3332 97.2348 16.3114L98.7091 14.96ZM97.6291 14.48V12.48H78.4291V14.48V16.48H97.6291V14.48ZM78.4291 14.48V12.48C77.4373 12.48 76.5647 12.876 75.8949 13.5458L77.3091 14.96L78.7233 16.3742C78.7239 16.3736 78.6894 16.4072 78.6169 16.4383C78.5421 16.4703 78.4727 16.48 78.4291 16.48V14.48ZM77.3091 14.96L75.8948 13.5458C75.2146 14.226 74.8691 15.0998 74.8691 16.04H76.8691H78.8691C78.8691 16.0601 78.8647 16.1226 78.8312 16.2046C78.7974 16.2877 78.7523 16.3452 78.7233 16.3742L77.3091 14.96ZM76.8691 16.04H74.8691V24.48H76.8691H78.8691V16.04H76.8691ZM76.8691 24.48H74.8691C74.8691 25.4202 75.2146 26.294 75.8949 26.9742L77.3091 25.56L78.7233 24.1458C78.7523 24.1748 78.7974 24.2323 78.8312 24.3154C78.8647 24.3974 78.8691 24.4599 78.8691 24.48H76.8691ZM77.3091 25.56L75.9576 27.0343C76.6394 27.6592 77.4924 28 78.4291 28V26V24C78.4499 24 78.4995 24.0046 78.5604 24.0285C78.6206 24.0522 78.6543 24.08 78.6605 24.0857L77.3091 25.56ZM109.917 40H107.917V42H109.917V40ZM110.557 13.6L112.277 14.6196L112.286 14.606L112.293 14.5923L110.557 13.6ZM112.277 11.84L111.285 10.1035L111.271 10.1114L111.257 10.1194L112.277 11.84ZM136.317 11.84L135.297 13.5606L135.311 13.5686L135.325 13.5765L136.317 11.84ZM138.077 13.6L136.34 14.5923L136.348 14.606L136.356 14.6196L138.077 13.6ZM138.717 40V42H140.717V40H138.717ZM135.477 40H133.477V42H135.477V40ZM135.477 29.48H137.477V27.48H135.477V29.48ZM113.157 29.48V27.48H111.157V29.48H113.157ZM113.157 40V42H115.157V40H113.157ZM113.157 26.24H111.157V28.24H113.157V26.24ZM135.477 26.24V28.24H137.477V26.24H135.477ZM134.997 14.92L133.523 16.2714L133.581 16.3355L133.645 16.3943L134.997 14.92ZM113.597 14.92L115.011 16.3342V16.3342L113.597 14.92ZM109.917 40H111.917V16H109.917H107.917V40H109.917ZM109.917 16H111.917C111.917 15.4595 112.043 15.0148 112.277 14.6196L110.557 13.6L108.836 12.5804C108.217 13.6252 107.917 14.7805 107.917 16H109.917ZM110.557 13.6L112.293 14.5923C112.553 14.1377 112.883 13.8056 113.296 13.5606L112.277 11.84L111.257 10.1194C110.231 10.7277 109.414 11.569 108.82 12.6077L110.557 13.6ZM112.277 11.84L113.269 13.5765C113.706 13.3267 114.176 13.2 114.717 13.2V11.2V9.2C113.497 9.2 112.341 9.5 111.285 10.1035L112.277 11.84ZM114.717 11.2V13.2H133.917V11.2V9.2H114.717V11.2ZM133.917 11.2V13.2C134.457 13.2 134.902 13.3264 135.297 13.5606L136.317 11.84L137.336 10.1194C136.292 9.50027 135.136 9.2 133.917 9.2V11.2ZM136.317 11.84L135.325 13.5765C135.761 13.826 136.091 14.1557 136.34 14.5923L138.077 13.6L139.813 12.6077C139.21 11.551 138.366 10.7074 137.309 10.1035L136.317 11.84ZM138.077 13.6L136.356 14.6196C136.59 15.0148 136.717 15.4595 136.717 16H138.717H140.717C140.717 14.7805 140.417 13.6252 139.797 12.5804L138.077 13.6ZM138.717 16H136.717V40H138.717H140.717V16H138.717ZM138.717 40V38H135.477V40V42H138.717V40ZM135.477 40H137.477V29.48H135.477H133.477V40H135.477ZM135.477 29.48V27.48H113.157V29.48V31.48H135.477V29.48ZM113.157 29.48H111.157V40H113.157H115.157V29.48H113.157ZM113.157 40V38H109.917V40V42H113.157V40ZM113.157 26.24V28.24H135.477V26.24V24.24H113.157V26.24ZM135.477 26.24H137.477V16H135.477H133.477V26.24H135.477ZM135.477 16H137.477C137.477 15.0017 137.073 14.1103 136.348 13.4457L134.997 14.92L133.645 16.3943C133.624 16.3744 133.572 16.3178 133.529 16.2223C133.486 16.1259 133.477 16.043 133.477 16H135.477ZM134.997 14.92L136.471 13.5685C135.807 12.8435 134.915 12.44 133.917 12.44V14.44V16.44C133.874 16.44 133.791 16.4305 133.695 16.3876C133.599 16.3451 133.542 16.2932 133.523 16.2714L134.997 14.92ZM133.917 14.44V12.44H114.717V14.44V16.44H133.917V14.44ZM114.717 14.44V12.44C113.725 12.44 112.852 12.836 112.183 13.5058L113.597 14.92L115.011 16.3342C115.012 16.3336 114.977 16.3672 114.905 16.3983C114.83 16.4303 114.76 16.44 114.717 16.44V14.44ZM113.597 14.92L112.183 13.5058C111.502 14.186 111.157 15.0598 111.157 16H113.157H115.157C115.157 16.02 115.152 16.0826 115.119 16.1646C115.085 16.2477 115.04 16.3052 115.011 16.3342L113.597 14.92ZM113.157 16H111.157V26.24H113.157H115.157V16H113.157ZM146.554 40H144.554V42H146.554V40ZM146.554 11.2V9.2H144.554V11.2H146.554ZM172.834 11.2H174.834V9.2H172.834V11.2ZM172.834 14.44V16.44H174.834V14.44H172.834ZM149.794 14.44V12.44H147.794V14.44H149.794ZM149.794 23.96H147.794V25.96H149.794V23.96ZM168.314 23.96H170.314V21.96H168.314V23.96ZM168.314 27.24V29.24H170.314V27.24H168.314ZM149.794 27.24V25.24H147.794V27.24H149.794ZM149.794 40V42H151.794V40H149.794ZM146.554 40H148.554V11.2H146.554H144.554V40H146.554ZM146.554 11.2V13.2H172.834V11.2V9.2H146.554V11.2ZM172.834 11.2H170.834V14.44H172.834H174.834V11.2H172.834ZM172.834 14.44V12.44H149.794V14.44V16.44H172.834V14.44ZM149.794 14.44H147.794V23.96H149.794H151.794V14.44H149.794ZM149.794 23.96V25.96H168.314V23.96V21.96H149.794V23.96ZM168.314 23.96H166.314V27.24H168.314H170.314V23.96H168.314ZM168.314 27.24V25.24H149.794V27.24V29.24H168.314V27.24ZM149.794 27.24H147.794V40H149.794H151.794V27.24H149.794ZM149.794 40V38H146.554V40V42H149.794V40ZM178.661 40H176.661V42H178.661V40ZM178.661 11.2V9.2H176.661V11.2H178.661ZM204.941 11.2H206.941V9.2H204.941V11.2ZM204.941 14.44V16.44H206.941V14.44H204.941ZM181.901 14.44V12.44H179.901V14.44H181.901ZM181.901 23.96H179.901V25.96H181.901V23.96ZM200.421 23.96H202.421V21.96H200.421V23.96ZM200.421 27.24V29.24H202.421V27.24H200.421ZM181.901 27.24V25.24H179.901V27.24H181.901ZM181.901 40V42H183.901V40H181.901ZM178.661 40H180.661V11.2H178.661H176.661V40H178.661ZM178.661 11.2V13.2H204.941V11.2V9.2H178.661V11.2ZM204.941 11.2H202.941V14.44H204.941H206.941V11.2H204.941ZM204.941 14.44V12.44H181.901V14.44V16.44H204.941V14.44ZM181.901 14.44H179.901V23.96H181.901H183.901V14.44H181.901ZM181.901 23.96V25.96H200.421V23.96V21.96H181.901V23.96ZM200.421 23.96H198.421V27.24H200.421H202.421V23.96H200.421ZM200.421 27.24V25.24H181.901V27.24V29.24H200.421V27.24ZM181.901 27.24H179.901V40H181.901H183.901V27.24H181.901ZM181.901 40V38H178.661V40V42H181.901V40ZM212.967 39.36L211.947 41.0806L211.961 41.0886L211.975 41.0965L212.967 39.36ZM211.247 37.64L209.51 38.6323L209.518 38.646L209.526 38.6596L211.247 37.64ZM211.247 13.6L212.967 14.6196L212.976 14.606L212.983 14.5923L211.247 13.6ZM212.967 11.84L211.975 10.1035L211.961 10.1114L211.947 10.1194L212.967 11.84ZM237.007 11.84L235.987 13.5606L236.001 13.5686L236.015 13.5765L237.007 11.84ZM238.767 13.6L237.03 14.5923L237.038 14.606L237.046 14.6196L238.767 13.6ZM238.767 37.64L240.487 38.6596L240.496 38.646L240.503 38.6323L238.767 37.64ZM237.007 39.36L236.015 37.6235L236.001 37.6314L235.987 37.6394L237.007 39.36ZM235.687 36.32L237.101 37.7342L237.101 37.7342L235.687 36.32ZM235.687 14.92L234.213 16.2714L234.271 16.3355L234.335 16.3943L235.687 14.92ZM214.287 14.92L215.701 16.3342V16.3342L214.287 14.92ZM214.287 36.32L212.813 37.6715L212.871 37.7355L212.935 37.7943L214.287 36.32ZM215.407 40V38C214.866 38 214.396 37.8733 213.959 37.6235L212.967 39.36L211.975 41.0965C213.031 41.7 214.187 42 215.407 42V40ZM212.967 39.36L213.986 37.6394C213.555 37.3839 213.223 37.0516 212.967 36.6204L211.247 37.64L209.526 38.6596C210.124 39.6684 210.938 40.4828 211.947 41.0806L212.967 39.36ZM211.247 37.64L212.983 36.6477C212.734 36.2105 212.607 35.7404 212.607 35.2H210.607H208.607C208.607 36.4196 208.907 37.5761 209.51 38.6323L211.247 37.64ZM210.607 35.2H212.607V16H210.607H208.607V35.2H210.607ZM210.607 16H212.607C212.607 15.4595 212.733 15.0148 212.967 14.6196L211.247 13.6L209.526 12.5804C208.907 13.6252 208.607 14.7805 208.607 16H210.607ZM211.247 13.6L212.983 14.5923C213.243 14.1377 213.573 13.8056 213.986 13.5606L212.967 11.84L211.947 10.1194C210.921 10.7277 210.104 11.569 209.51 12.6077L211.247 13.6ZM212.967 11.84L213.959 13.5765C214.396 13.3267 214.866 13.2 215.407 13.2V11.2V9.2C214.187 9.2 213.031 9.5 211.975 10.1035L212.967 11.84ZM215.407 11.2V13.2H234.607V11.2V9.2H215.407V11.2ZM234.607 11.2V13.2C235.147 13.2 235.592 13.3264 235.987 13.5606L237.007 11.84L238.026 10.1194C236.982 9.50027 235.826 9.2 234.607 9.2V11.2ZM237.007 11.84L236.015 13.5765C236.451 13.826 236.781 14.1557 237.03 14.5923L238.767 13.6L240.503 12.6077C239.9 11.551 239.056 10.7074 237.999 10.1035L237.007 11.84ZM238.767 13.6L237.046 14.6196C237.28 15.0148 237.407 15.4595 237.407 16H239.407H241.407C241.407 14.7805 241.107 13.6252 240.487 12.5804L238.767 13.6ZM239.407 16H237.407V35.2H239.407H241.407V16H239.407ZM239.407 35.2H237.407C237.407 35.7404 237.28 36.2105 237.03 36.6477L238.767 37.64L240.503 38.6323C241.107 37.5761 241.407 36.4196 241.407 35.2H239.407ZM238.767 37.64L237.046 36.6204C236.801 37.0339 236.469 37.3638 236.015 37.6235L237.007 39.36L237.999 41.0965C239.038 40.5029 239.879 39.6861 240.487 38.6596L238.767 37.64ZM237.007 39.36L235.987 37.6394C235.592 37.8736 235.147 38 234.607 38V40V42C235.826 42 236.982 41.6997 238.026 41.0806L237.007 39.36ZM234.607 40V38H215.407V40V42H234.607V40ZM215.407 36.76V38.76H234.607V36.76V34.76H215.407V36.76ZM234.607 36.76V38.76C235.547 38.76 236.421 38.4144 237.101 37.7342L235.687 36.32L234.273 34.9058C234.302 34.8768 234.359 34.8317 234.442 34.7978C234.524 34.7644 234.587 34.76 234.607 34.76V36.76ZM235.687 36.32L237.101 37.7342C237.771 37.0644 238.167 36.1918 238.167 35.2H236.167H234.167C234.167 35.1564 234.177 35.0869 234.209 35.0122C234.24 34.9397 234.273 34.9052 234.273 34.9058L235.687 36.32ZM236.167 35.2H238.167V16H236.167H234.167V35.2H236.167ZM236.167 16H238.167C238.167 15.0017 237.763 14.1103 237.038 13.4457L235.687 14.92L234.335 16.3943C234.314 16.3744 234.262 16.3178 234.219 16.2223C234.176 16.1259 234.167 16.043 234.167 16H236.167ZM235.687 14.92L237.161 13.5685C236.497 12.8435 235.605 12.44 234.607 12.44V14.44V16.44C234.564 16.44 234.481 16.4305 234.385 16.3876C234.289 16.3451 234.233 16.2932 234.213 16.2714L235.687 14.92ZM234.607 14.44V12.44H215.407V14.44V16.44H234.607V14.44ZM215.407 14.44V12.44C214.415 12.44 213.542 12.836 212.873 13.5058L214.287 14.92L215.701 16.3342C215.702 16.3336 215.667 16.3672 215.595 16.3983C215.52 16.4303 215.45 16.44 215.407 16.44V14.44ZM214.287 14.92L212.873 13.5058C212.192 14.186 211.847 15.0598 211.847 16H213.847H215.847C215.847 16.0201 215.842 16.0826 215.809 16.1646C215.775 16.2477 215.73 16.3052 215.701 16.3342L214.287 14.92ZM213.847 16H211.847V35.2H213.847H215.847V16H213.847ZM213.847 35.2H211.847C211.847 36.1366 212.188 36.9897 212.813 37.6715L214.287 36.32L215.761 34.9686C215.767 34.9747 215.795 35.0084 215.818 35.0687C215.842 35.1295 215.847 35.1792 215.847 35.2H213.847ZM214.287 36.32L212.935 37.7943C213.617 38.4192 214.47 38.76 215.407 38.76V36.76V34.76C215.428 34.76 215.477 34.7646 215.538 34.7885C215.598 34.8122 215.632 34.84 215.638 34.8457L214.287 36.32Z" fill="black" mask="url(#path-1-outside-1_2_57)"/>
<mask id="path-3-outside-2_2_57" maskUnits="userSpaceOnUse" x="59.8859" y="52" width="123" height="23" fill="black">
<rect fill="white" x="59.8859" y="52" width="123" height="23"/>
<path d="M61.8434 74V53.84H64.9514L73.3234 63.808L81.6954 53.84H84.8034V74H82.5354V56.416L73.3234 67.364L64.1114 56.416V74H61.8434ZM92.524 74C91.908 74 91.3386 73.8507 90.816 73.552C90.312 73.2533 89.9106 72.852 89.612 72.348C89.3133 71.8253 89.164 71.256 89.164 70.64V57.2C89.164 56.584 89.3133 56.024 89.612 55.52C89.9106 54.9973 90.312 54.5867 90.816 54.288C91.3386 53.9893 91.908 53.84 92.524 53.84H105.964C106.58 53.84 107.14 53.9893 107.644 54.288C108.167 54.5867 108.577 54.9973 108.876 55.52C109.175 56.024 109.324 56.584 109.324 57.2V70.64C109.324 71.256 109.175 71.8253 108.876 72.348C108.577 72.852 108.167 73.2533 107.644 73.552C107.14 73.8507 106.58 74 105.964 74H92.524ZM92.524 71.732H105.964C106.263 71.732 106.515 71.6293 106.72 71.424C106.944 71.2 107.056 70.9387 107.056 70.64V57.2C107.056 56.9013 106.944 56.6493 106.72 56.444C106.515 56.22 106.263 56.108 105.964 56.108H92.524C92.2253 56.108 91.964 56.22 91.74 56.444C91.5346 56.6493 91.432 56.9013 91.432 57.2V70.64C91.432 70.9387 91.5346 71.2 91.74 71.424C91.964 71.6293 92.2253 71.732 92.524 71.732ZM121.759 74V56.108H112.799V53.84H132.959V56.108H124.027V74H121.759ZM139.758 74C139.142 74 138.572 73.8507 138.05 73.552C137.546 73.2533 137.144 72.852 136.846 72.348C136.547 71.8253 136.398 71.256 136.398 70.64V57.2C136.398 56.584 136.547 56.024 136.846 55.52C137.144 54.9973 137.546 54.5867 138.05 54.288C138.572 53.9893 139.142 53.84 139.758 53.84H153.198C153.814 53.84 154.374 53.9893 154.878 54.288C155.4 54.5867 155.811 54.9973 156.11 55.52C156.408 56.024 156.558 56.584 156.558 57.2V70.64C156.558 71.256 156.408 71.8253 156.11 72.348C155.811 72.852 155.4 73.2533 154.878 73.552C154.374 73.8507 153.814 74 153.198 74H139.758ZM139.758 71.732H153.198C153.496 71.732 153.748 71.6293 153.954 71.424C154.178 71.2 154.29 70.9387 154.29 70.64V57.2C154.29 56.9013 154.178 56.6493 153.954 56.444C153.748 56.22 153.496 56.108 153.198 56.108H139.758C139.459 56.108 139.198 56.22 138.974 56.444C138.768 56.6493 138.666 56.9013 138.666 57.2V70.64C138.666 70.9387 138.768 71.2 138.974 71.424C139.198 71.6293 139.459 71.732 139.758 71.732ZM164.261 74C163.645 74 163.076 73.8507 162.553 73.552C162.049 73.2533 161.648 72.852 161.349 72.348C161.05 71.8253 160.901 71.256 160.901 70.64V69.856H163.169V70.64C163.169 70.9387 163.272 71.2 163.477 71.424C163.701 71.6293 163.962 71.732 164.261 71.732H177.701C178 71.732 178.252 71.6293 178.457 71.424C178.681 71.2 178.793 70.9387 178.793 70.64V66.132C178.793 65.8333 178.681 65.5813 178.457 65.376C178.252 65.1707 178 65.068 177.701 65.068H164.261C163.645 65.068 163.076 64.9187 162.553 64.62C162.049 64.3027 161.648 63.892 161.349 63.388C161.05 62.884 160.901 62.324 160.901 61.708V57.2C160.901 56.584 161.05 56.024 161.349 55.52C161.648 54.9973 162.049 54.5867 162.553 54.288C163.076 53.9893 163.645 53.84 164.261 53.84H177.701C178.317 53.84 178.877 53.9893 179.381 54.288C179.904 54.5867 180.314 54.9973 180.613 55.52C180.912 56.024 181.061 56.584 181.061 57.2V57.984H178.793V57.2C178.793 56.9013 178.681 56.6493 178.457 56.444C178.252 56.22 178 56.108 177.701 56.108H164.261C163.962 56.108 163.701 56.22 163.477 56.444C163.272 56.6493 163.169 56.9013 163.169 57.2V61.708C163.169 62.0067 163.272 62.2587 163.477 62.464C163.701 62.6693 163.962 62.772 164.261 62.772H177.701C178.317 62.772 178.877 62.9307 179.381 63.248C179.904 63.5467 180.314 63.948 180.613 64.452C180.912 64.956 181.061 65.516 181.061 66.132V70.64C181.061 71.256 180.912 71.8253 180.613 72.348C180.314 72.852 179.904 73.2533 179.381 73.552C178.877 73.8507 178.317 74 177.701 74H164.261Z"/>
</mask>
<path d="M61.8434 74V53.84H64.9514L73.3234 63.808L81.6954 53.84H84.8034V74H82.5354V56.416L73.3234 67.364L64.1114 56.416V74H61.8434ZM92.524 74C91.908 74 91.3386 73.8507 90.816 73.552C90.312 73.2533 89.9106 72.852 89.612 72.348C89.3133 71.8253 89.164 71.256 89.164 70.64V57.2C89.164 56.584 89.3133 56.024 89.612 55.52C89.9106 54.9973 90.312 54.5867 90.816 54.288C91.3386 53.9893 91.908 53.84 92.524 53.84H105.964C106.58 53.84 107.14 53.9893 107.644 54.288C108.167 54.5867 108.577 54.9973 108.876 55.52C109.175 56.024 109.324 56.584 109.324 57.2V70.64C109.324 71.256 109.175 71.8253 108.876 72.348C108.577 72.852 108.167 73.2533 107.644 73.552C107.14 73.8507 106.58 74 105.964 74H92.524ZM92.524 71.732H105.964C106.263 71.732 106.515 71.6293 106.72 71.424C106.944 71.2 107.056 70.9387 107.056 70.64V57.2C107.056 56.9013 106.944 56.6493 106.72 56.444C106.515 56.22 106.263 56.108 105.964 56.108H92.524C92.2253 56.108 91.964 56.22 91.74 56.444C91.5346 56.6493 91.432 56.9013 91.432 57.2V70.64C91.432 70.9387 91.5346 71.2 91.74 71.424C91.964 71.6293 92.2253 71.732 92.524 71.732ZM121.759 74V56.108H112.799V53.84H132.959V56.108H124.027V74H121.759ZM139.758 74C139.142 74 138.572 73.8507 138.05 73.552C137.546 73.2533 137.144 72.852 136.846 72.348C136.547 71.8253 136.398 71.256 136.398 70.64V57.2C136.398 56.584 136.547 56.024 136.846 55.52C137.144 54.9973 137.546 54.5867 138.05 54.288C138.572 53.9893 139.142 53.84 139.758 53.84H153.198C153.814 53.84 154.374 53.9893 154.878 54.288C155.4 54.5867 155.811 54.9973 156.11 55.52C156.408 56.024 156.558 56.584 156.558 57.2V70.64C156.558 71.256 156.408 71.8253 156.11 72.348C155.811 72.852 155.4 73.2533 154.878 73.552C154.374 73.8507 153.814 74 153.198 74H139.758ZM139.758 71.732H153.198C153.496 71.732 153.748 71.6293 153.954 71.424C154.178 71.2 154.29 70.9387 154.29 70.64V57.2C154.29 56.9013 154.178 56.6493 153.954 56.444C153.748 56.22 153.496 56.108 153.198 56.108H139.758C139.459 56.108 139.198 56.22 138.974 56.444C138.768 56.6493 138.666 56.9013 138.666 57.2V70.64C138.666 70.9387 138.768 71.2 138.974 71.424C139.198 71.6293 139.459 71.732 139.758 71.732ZM164.261 74C163.645 74 163.076 73.8507 162.553 73.552C162.049 73.2533 161.648 72.852 161.349 72.348C161.05 71.8253 160.901 71.256 160.901 70.64V69.856H163.169V70.64C163.169 70.9387 163.272 71.2 163.477 71.424C163.701 71.6293 163.962 71.732 164.261 71.732H177.701C178 71.732 178.252 71.6293 178.457 71.424C178.681 71.2 178.793 70.9387 178.793 70.64V66.132C178.793 65.8333 178.681 65.5813 178.457 65.376C178.252 65.1707 178 65.068 177.701 65.068H164.261C163.645 65.068 163.076 64.9187 162.553 64.62C162.049 64.3027 161.648 63.892 161.349 63.388C161.05 62.884 160.901 62.324 160.901 61.708V57.2C160.901 56.584 161.05 56.024 161.349 55.52C161.648 54.9973 162.049 54.5867 162.553 54.288C163.076 53.9893 163.645 53.84 164.261 53.84H177.701C178.317 53.84 178.877 53.9893 179.381 54.288C179.904 54.5867 180.314 54.9973 180.613 55.52C180.912 56.024 181.061 56.584 181.061 57.2V57.984H178.793V57.2C178.793 56.9013 178.681 56.6493 178.457 56.444C178.252 56.22 178 56.108 177.701 56.108H164.261C163.962 56.108 163.701 56.22 163.477 56.444C163.272 56.6493 163.169 56.9013 163.169 57.2V61.708C163.169 62.0067 163.272 62.2587 163.477 62.464C163.701 62.6693 163.962 62.772 164.261 62.772H177.701C178.317 62.772 178.877 62.9307 179.381 63.248C179.904 63.5467 180.314 63.948 180.613 64.452C180.912 64.956 181.061 65.516 181.061 66.132V70.64C181.061 71.256 180.912 71.8253 180.613 72.348C180.314 72.852 179.904 73.2533 179.381 73.552C178.877 73.8507 178.317 74 177.701 74H164.261Z" fill="black"/>
<path d="M61.8434 74H60.8434V75H61.8434V74ZM61.8434 53.84V52.84H60.8434V53.84H61.8434ZM64.9514 53.84L65.7171 53.1969L65.4174 52.84H64.9514V53.84ZM73.3234 63.808L72.5576 64.4511L73.3234 65.3629L74.0891 64.4511L73.3234 63.808ZM81.6954 53.84V52.84H81.2294L80.9296 53.1969L81.6954 53.84ZM84.8034 53.84H85.8034V52.84H84.8034V53.84ZM84.8034 74V75H85.8034V74H84.8034ZM82.5354 74H81.5354V75H82.5354V74ZM82.5354 56.416H83.5354V53.6744L81.7702 55.7722L82.5354 56.416ZM73.3234 67.364L72.5582 68.0078L73.3234 68.9172L74.0886 68.0078L73.3234 67.364ZM64.1114 56.416L64.8766 55.7722L63.1114 53.6744V56.416H64.1114ZM64.1114 74V75H65.1114V74H64.1114ZM61.8434 74H62.8434V53.84H61.8434H60.8434V74H61.8434ZM61.8434 53.84V54.84H64.9514V53.84V52.84H61.8434V53.84ZM64.9514 53.84L64.1856 54.4831L72.5576 64.4511L73.3234 63.808L74.0891 63.1649L65.7171 53.1969L64.9514 53.84ZM73.3234 63.808L74.0891 64.4511L82.4611 54.4831L81.6954 53.84L80.9296 53.1969L72.5576 63.1649L73.3234 63.808ZM81.6954 53.84V54.84H84.8034V53.84V52.84H81.6954V53.84ZM84.8034 53.84H83.8034V74H84.8034H85.8034V53.84H84.8034ZM84.8034 74V73H82.5354V74V75H84.8034V74ZM82.5354 74H83.5354V56.416H82.5354H81.5354V74H82.5354ZM82.5354 56.416L81.7702 55.7722L72.5582 66.7202L73.3234 67.364L74.0886 68.0078L83.3006 57.0598L82.5354 56.416ZM73.3234 67.364L74.0886 66.7202L64.8766 55.7722L64.1114 56.416L63.3462 57.0598L72.5582 68.0078L73.3234 67.364ZM64.1114 56.416H63.1114V74H64.1114H65.1114V56.416H64.1114ZM64.1114 74V73H61.8434V74V75H64.1114V74ZM90.816 73.552L90.3061 74.4123L90.3129 74.4163L90.3198 74.4202L90.816 73.552ZM89.612 72.348L88.7437 72.8441L88.7476 72.851L88.7517 72.8578L89.612 72.348ZM89.612 55.52L90.4722 56.0298L90.4763 56.023L90.4802 56.0161L89.612 55.52ZM90.816 54.288L90.3198 53.4198L90.3129 53.4237L90.3061 53.4277L90.816 54.288ZM107.644 54.288L107.134 55.1483L107.141 55.1523L107.148 55.1562L107.644 54.288ZM108.876 55.52L108.008 56.0161L108.012 56.023L108.016 56.0298L108.876 55.52ZM108.876 72.348L109.736 72.8578L109.74 72.851L109.744 72.8441L108.876 72.348ZM107.644 73.552L107.148 72.6838L107.141 72.6877L107.134 72.6917L107.644 73.552ZM106.72 71.424L107.427 72.1311V72.1311L106.72 71.424ZM106.72 56.444L105.983 57.1197L106.012 57.1518L106.044 57.1812L106.72 56.444ZM91.74 56.444L92.4471 57.1511V57.1511L91.74 56.444ZM91.74 71.424L91.0028 72.0997L91.0322 72.1318L91.0642 72.1612L91.74 71.424ZM92.524 74V73C92.0777 73 91.68 72.894 91.3121 72.6838L90.816 73.552L90.3198 74.4202C90.9972 74.8073 91.7382 75 92.524 75V74ZM90.816 73.552L91.3258 72.6917C90.9661 72.4786 90.6853 72.1978 90.4722 71.8382L89.612 72.348L88.7517 72.8578C89.1359 73.5062 89.6578 74.0281 90.3061 74.4123L90.816 73.552ZM89.612 72.348L90.4802 71.8519C90.2699 71.4839 90.164 71.0862 90.164 70.64H89.164H88.164C88.164 71.4258 88.3566 72.1667 88.7437 72.8441L89.612 72.348ZM89.164 70.64H90.164V57.2H89.164H88.164V70.64H89.164ZM89.164 57.2H90.164C90.164 56.7538 90.2698 56.3714 90.4722 56.0298L89.612 55.52L88.7517 55.0102C88.3568 55.6766 88.164 56.4142 88.164 57.2H89.164ZM89.612 55.52L90.4802 56.0161C90.6954 55.6395 90.975 55.3562 91.3258 55.1483L90.816 54.288L90.3061 53.4277C89.6489 53.8172 89.1258 54.3551 88.7437 55.0239L89.612 55.52ZM90.816 54.288L91.3121 55.1562C91.68 54.946 92.0777 54.84 92.524 54.84V53.84V52.84C91.7382 52.84 90.9972 53.0327 90.3198 53.4198L90.816 54.288ZM92.524 53.84V54.84H105.964V53.84V52.84H92.524V53.84ZM105.964 53.84V54.84C106.41 54.84 106.793 54.9459 107.134 55.1483L107.644 54.288L108.154 53.4277C107.487 53.0328 106.75 52.84 105.964 52.84V53.84ZM107.644 54.288L107.148 55.1562C107.515 55.3663 107.798 55.6485 108.008 56.0161L108.876 55.52L109.744 55.0239C109.357 54.3462 108.818 53.807 108.14 53.4198L107.644 54.288ZM108.876 55.52L108.016 56.0298C108.218 56.3714 108.324 56.7538 108.324 57.2H109.324H110.324C110.324 56.4142 110.131 55.6766 109.736 55.0102L108.876 55.52ZM109.324 57.2H108.324V70.64H109.324H110.324V57.2H109.324ZM109.324 70.64H108.324C108.324 71.0862 108.218 71.4839 108.008 71.8519L108.876 72.348L109.744 72.8441C110.131 72.1667 110.324 71.4258 110.324 70.64H109.324ZM108.876 72.348L108.016 71.8382C107.808 72.189 107.524 72.4685 107.148 72.6838L107.644 73.552L108.14 74.4202C108.809 74.0381 109.347 73.515 109.736 72.8578L108.876 72.348ZM107.644 73.552L107.134 72.6917C106.793 72.8941 106.41 73 105.964 73V74V75C106.75 75 107.487 74.8072 108.154 74.4123L107.644 73.552ZM105.964 74V73H92.524V74V75H105.964V74ZM92.524 71.732V72.732H105.964V71.732V70.732H92.524V71.732ZM105.964 71.732V72.732C106.519 72.732 107.028 72.5299 107.427 72.1311L106.72 71.424L106.013 70.7169C106.005 70.7252 106 70.7286 105.999 70.7293C105.998 70.73 105.998 70.7295 106 70.7289C106.001 70.7283 106 70.7289 105.996 70.7297C105.991 70.7305 105.981 70.732 105.964 70.732V71.732ZM106.72 71.424L107.427 72.1311C107.826 71.7322 108.056 71.2212 108.056 70.64H107.056H106.056C106.056 70.6518 106.055 70.6583 106.054 70.6609C106.054 70.6633 106.053 70.6647 106.053 70.6661C106.052 70.6672 106.045 70.6846 106.013 70.7169L106.72 71.424ZM107.056 70.64H108.056V57.2H107.056H106.056V70.64H107.056ZM107.056 57.2H108.056C108.056 56.6155 107.822 56.0978 107.396 55.7068L106.72 56.444L106.044 57.1812C106.056 57.1916 106.06 57.1977 106.061 57.1988C106.062 57.1997 106.06 57.1977 106.058 57.1931C106.056 57.1886 106.055 57.185 106.055 57.1841C106.055 57.1833 106.056 57.1881 106.056 57.2H107.056ZM106.72 56.444L107.457 55.7683C107.066 55.3417 106.548 55.108 105.964 55.108V56.108V57.108C105.976 57.108 105.981 57.1091 105.98 57.1089C105.979 57.1087 105.975 57.1078 105.971 57.1058C105.966 57.1038 105.964 57.1022 105.965 57.1029C105.966 57.1037 105.972 57.1084 105.983 57.1197L106.72 56.444ZM105.964 56.108V55.108H92.524V56.108V57.108H105.964V56.108ZM92.524 56.108V55.108C91.9427 55.108 91.4318 55.338 91.0328 55.7369L91.74 56.444L92.4471 57.1511C92.4794 57.1188 92.4968 57.1116 92.4979 57.1111C92.4993 57.1105 92.5007 57.1101 92.5031 57.1096C92.5056 57.1091 92.5121 57.108 92.524 57.108V56.108ZM91.74 56.444L91.0328 55.7369C90.6341 56.1357 90.432 56.6446 90.432 57.2H91.432H92.432C92.432 57.1828 92.4334 57.1726 92.4343 57.168C92.4351 57.1637 92.4356 57.1629 92.435 57.1643C92.4345 57.1657 92.434 57.1663 92.4346 57.1653C92.4354 57.1643 92.4388 57.1594 92.4471 57.1511L91.74 56.444ZM91.432 57.2H90.432V70.64H91.432H92.432V57.2H91.432ZM91.432 70.64H90.432C90.432 71.1936 90.6317 71.6949 91.0028 72.0997L91.74 71.424L92.4771 70.7483C92.4376 70.7051 92.432 70.6837 92.432 70.64H91.432ZM91.74 71.424L91.0642 72.1612C91.4691 72.5323 91.9703 72.732 92.524 72.732V71.732V70.732C92.4803 70.732 92.4588 70.7264 92.4157 70.6868L91.74 71.424ZM121.759 74H120.759V75H121.759V74ZM121.759 56.108H122.759V55.108H121.759V56.108ZM112.799 56.108H111.799V57.108H112.799V56.108ZM112.799 53.84V52.84H111.799V53.84H112.799ZM132.959 53.84H133.959V52.84H132.959V53.84ZM132.959 56.108V57.108H133.959V56.108H132.959ZM124.027 56.108V55.108H123.027V56.108H124.027ZM124.027 74V75H125.027V74H124.027ZM121.759 74H122.759V56.108H121.759H120.759V74H121.759ZM121.759 56.108V55.108H112.799V56.108V57.108H121.759V56.108ZM112.799 56.108H113.799V53.84H112.799H111.799V56.108H112.799ZM112.799 53.84V54.84H132.959V53.84V52.84H112.799V53.84ZM132.959 53.84H131.959V56.108H132.959H133.959V53.84H132.959ZM132.959 56.108V55.108H124.027V56.108V57.108H132.959V56.108ZM124.027 56.108H123.027V74H124.027H125.027V56.108H124.027ZM124.027 74V73H121.759V74V75H124.027V74ZM138.05 73.552L137.54 74.4123L137.547 74.4163L137.553 74.4202L138.05 73.552ZM136.846 72.348L135.977 72.8441L135.981 72.851L135.985 72.8578L136.846 72.348ZM136.846 55.52L137.706 56.0298L137.71 56.023L137.714 56.0161L136.846 55.52ZM138.05 54.288L137.553 53.4198L137.547 53.4237L137.54 53.4277L138.05 54.288ZM154.878 54.288L154.368 55.1483L154.375 55.1523L154.381 55.1562L154.878 54.288ZM156.11 55.52L155.241 56.0161L155.245 56.023L155.249 56.0298L156.11 55.52ZM156.11 72.348L156.97 72.8578L156.974 72.851L156.978 72.8441L156.11 72.348ZM154.878 73.552L154.381 72.6838L154.375 72.6877L154.368 72.6917L154.878 73.552ZM153.954 71.424L154.661 72.1311V72.1311L153.954 71.424ZM153.954 56.444L153.216 57.1197L153.246 57.1518L153.278 57.1812L153.954 56.444ZM138.974 56.444L139.681 57.1511V57.1511L138.974 56.444ZM138.974 71.424L138.236 72.0997L138.266 72.1318L138.298 72.1612L138.974 71.424ZM139.758 74V73C139.311 73 138.914 72.894 138.546 72.6838L138.05 73.552L137.553 74.4202C138.231 74.8073 138.972 75 139.758 75V74ZM138.05 73.552L138.559 72.6917C138.2 72.4786 137.919 72.1978 137.706 71.8382L136.846 72.348L135.985 72.8578C136.369 73.5062 136.891 74.0281 137.54 74.4123L138.05 73.552ZM136.846 72.348L137.714 71.8519C137.504 71.4839 137.398 71.0862 137.398 70.64H136.398H135.398C135.398 71.4258 135.59 72.1667 135.977 72.8441L136.846 72.348ZM136.398 70.64H137.398V57.2H136.398H135.398V70.64H136.398ZM136.398 57.2H137.398C137.398 56.7538 137.503 56.3714 137.706 56.0298L136.846 55.52L135.985 55.0102C135.59 55.6766 135.398 56.4142 135.398 57.2H136.398ZM136.846 55.52L137.714 56.0161C137.929 55.6395 138.209 55.3562 138.559 55.1483L138.05 54.288L137.54 53.4277C136.883 53.8172 136.359 54.3551 135.977 55.0239L136.846 55.52ZM138.05 54.288L138.546 55.1562C138.914 54.946 139.311 54.84 139.758 54.84V53.84V52.84C138.972 52.84 138.231 53.0327 137.553 53.4198L138.05 54.288ZM139.758 53.84V54.84H153.198V53.84V52.84H139.758V53.84ZM153.198 53.84V54.84C153.644 54.84 154.026 54.9459 154.368 55.1483L154.878 54.288L155.387 53.4277C154.721 53.0328 153.983 52.84 153.198 52.84V53.84ZM154.878 54.288L154.381 55.1562C154.749 55.3663 155.031 55.6485 155.241 56.0161L156.11 55.52L156.978 55.0239C156.591 54.3462 156.051 53.807 155.374 53.4198L154.878 54.288ZM156.11 55.52L155.249 56.0298C155.452 56.3714 155.558 56.7538 155.558 57.2H156.558H157.558C157.558 56.4142 157.365 55.6766 156.97 55.0102L156.11 55.52ZM156.558 57.2H155.558V70.64H156.558H157.558V57.2H156.558ZM156.558 70.64H155.558C155.558 71.0862 155.452 71.4839 155.241 71.8519L156.11 72.348L156.978 72.8441C157.365 72.1667 157.558 71.4258 157.558 70.64H156.558ZM156.11 72.348L155.249 71.8382C155.041 72.189 154.758 72.4685 154.381 72.6838L154.878 73.552L155.374 74.4202C156.042 74.0381 156.58 73.515 156.97 72.8578L156.11 72.348ZM154.878 73.552L154.368 72.6917C154.026 72.8941 153.644 73 153.198 73V74V75C153.983 75 154.721 74.8072 155.387 74.4123L154.878 73.552ZM153.198 74V73H139.758V74V75H153.198V74ZM139.758 71.732V72.732H153.198V71.732V70.732H139.758V71.732ZM153.198 71.732V72.732C153.753 72.732 154.262 72.5299 154.661 72.1311L153.954 71.424L153.246 70.7169C153.238 70.7252 153.233 70.7286 153.232 70.7293C153.231 70.73 153.232 70.7295 153.233 70.7289C153.235 70.7283 153.234 70.7289 153.23 70.7297C153.225 70.7305 153.215 70.732 153.198 70.732V71.732ZM153.954 71.424L154.661 72.1311C155.06 71.7322 155.29 71.2212 155.29 70.64H154.29H153.29C153.29 70.6518 153.288 70.6583 153.288 70.6609C153.287 70.6633 153.287 70.6647 153.286 70.6661C153.286 70.6672 153.279 70.6846 153.246 70.7169L153.954 71.424ZM154.29 70.64H155.29V57.2H154.29H153.29V70.64H154.29ZM154.29 57.2H155.29C155.29 56.6155 155.056 56.0978 154.629 55.7068L153.954 56.444L153.278 57.1812C153.289 57.1916 153.294 57.1977 153.295 57.1988C153.295 57.1997 153.294 57.1977 153.292 57.1931C153.29 57.1886 153.289 57.185 153.289 57.1841C153.288 57.1833 153.29 57.1881 153.29 57.2H154.29ZM153.954 56.444L154.691 55.7683C154.3 55.3417 153.782 55.108 153.198 55.108V56.108V57.108C153.209 57.108 153.214 57.1091 153.213 57.1089C153.213 57.1087 153.209 57.1078 153.204 57.1058C153.2 57.1038 153.198 57.1022 153.199 57.1029C153.2 57.1037 153.206 57.1084 153.216 57.1197L153.954 56.444ZM153.198 56.108V55.108H139.758V56.108V57.108H153.198V56.108ZM139.758 56.108V55.108C139.176 55.108 138.665 55.338 138.266 55.7369L138.974 56.444L139.681 57.1511C139.713 57.1188 139.73 57.1116 139.731 57.1111C139.733 57.1105 139.734 57.1101 139.737 57.1096C139.739 57.1091 139.746 57.108 139.758 57.108V56.108ZM138.974 56.444L138.266 55.7369C137.868 56.1357 137.666 56.6446 137.666 57.2H138.666H139.666C139.666 57.1828 139.667 57.1726 139.668 57.168C139.669 57.1637 139.669 57.1629 139.669 57.1643C139.668 57.1657 139.668 57.1663 139.668 57.1653C139.669 57.1643 139.672 57.1594 139.681 57.1511L138.974 56.444ZM138.666 57.2H137.666V70.64H138.666H139.666V57.2H138.666ZM138.666 70.64H137.666C137.666 71.1936 137.865 71.6949 138.236 72.0997L138.974 71.424L139.711 70.7483C139.671 70.7051 139.666 70.6837 139.666 70.64H138.666ZM138.974 71.424L138.298 72.1612C138.703 72.5323 139.204 72.732 139.758 72.732V71.732V70.732C139.714 70.732 139.692 70.7264 139.649 70.6868L138.974 71.424ZM162.553 73.552L162.043 74.4123L162.05 74.4163L162.057 74.4202L162.553 73.552ZM161.349 72.348L160.481 72.8441L160.485 72.851L160.489 72.8578L161.349 72.348ZM160.901 69.856V68.856H159.901V69.856H160.901ZM163.169 69.856H164.169V68.856H163.169V69.856ZM163.477 71.424L162.74 72.0997L162.769 72.1318L162.801 72.1612L163.477 71.424ZM178.457 71.424L177.75 70.7169V70.7169L178.457 71.424ZM178.457 65.376L177.75 66.0831L177.765 66.0985L177.781 66.1132L178.457 65.376ZM162.553 64.62L162.02 65.4662L162.038 65.4776L162.057 65.4882L162.553 64.62ZM161.349 63.388L160.489 63.8978V63.8978L161.349 63.388ZM161.349 55.52L162.209 56.0298L162.213 56.023L162.217 56.0161L161.349 55.52ZM162.553 54.288L162.057 53.4198L162.05 53.4237L162.043 53.4277L162.553 54.288ZM179.381 54.288L178.871 55.1483L178.878 55.1523L178.885 55.1562L179.381 54.288ZM180.613 55.52L179.745 56.0161L179.749 56.023L179.753 56.0298L180.613 55.52ZM181.061 57.984V58.984H182.061V57.984H181.061ZM178.793 57.984H177.793V58.984H178.793V57.984ZM178.457 56.444L177.72 57.1197L177.749 57.1518L177.781 57.1812L178.457 56.444ZM163.477 56.444L164.184 57.1511V57.1511L163.477 56.444ZM163.477 62.464L162.77 63.1711L162.785 63.1865L162.801 63.2012L163.477 62.464ZM179.381 63.248L178.848 64.0942L178.866 64.1056L178.885 64.1162L179.381 63.248ZM180.613 64.452L181.473 63.9422V63.9422L180.613 64.452ZM180.613 72.348L181.473 72.8578L181.477 72.851L181.481 72.8441L180.613 72.348ZM179.381 73.552L178.885 72.6838L178.878 72.6877L178.871 72.6917L179.381 73.552ZM164.261 74V73C163.815 73 163.417 72.894 163.049 72.6838L162.553 73.552L162.057 74.4202C162.734 74.8073 163.475 75 164.261 75V74ZM162.553 73.552L163.063 72.6917C162.703 72.4786 162.422 72.1978 162.209 71.8382L161.349 72.348L160.489 72.8578C160.873 73.5062 161.395 74.0281 162.043 74.4123L162.553 73.552ZM161.349 72.348L162.217 71.8519C162.007 71.4839 161.901 71.0862 161.901 70.64H160.901H159.901C159.901 71.4258 160.094 72.1667 160.481 72.8441L161.349 72.348ZM160.901 70.64H161.901V69.856H160.901H159.901V70.64H160.901ZM160.901 69.856V70.856H163.169V69.856V68.856H160.901V69.856ZM163.169 69.856H162.169V70.64H163.169H164.169V69.856H163.169ZM163.169 70.64H162.169C162.169 71.1936 162.369 71.6949 162.74 72.0997L163.477 71.424L164.214 70.7483C164.175 70.7051 164.169 70.6837 164.169 70.64H163.169ZM163.477 71.424L162.801 72.1612C163.206 72.5323 163.707 72.732 164.261 72.732V71.732V70.732C164.217 70.732 164.196 70.7264 164.153 70.6868L163.477 71.424ZM164.261 71.732V72.732H177.701V71.732V70.732H164.261V71.732ZM177.701 71.732V72.732C178.256 72.732 178.765 72.5299 179.164 72.1311L178.457 71.424L177.75 70.7169C177.742 70.7252 177.737 70.7286 177.736 70.7293C177.735 70.73 177.735 70.7295 177.737 70.7289C177.738 70.7283 177.737 70.7289 177.733 70.7297C177.728 70.7305 177.718 70.732 177.701 70.732V71.732ZM178.457 71.424L179.164 72.1311C179.563 71.7322 179.793 71.2212 179.793 70.64H178.793H177.793C177.793 70.6518 177.792 70.6583 177.791 70.6609C177.791 70.6633 177.791 70.6647 177.79 70.6661C177.789 70.6672 177.782 70.6846 177.75 70.7169L178.457 71.424ZM178.793 70.64H179.793V66.132H178.793H177.793V70.64H178.793ZM178.793 66.132H179.793C179.793 65.5475 179.559 65.0298 179.133 64.6388L178.457 65.376L177.781 66.1132C177.793 66.1236 177.797 66.1297 177.798 66.1308C177.799 66.1318 177.797 66.1297 177.795 66.1251C177.793 66.1206 177.792 66.117 177.792 66.1161C177.792 66.1153 177.793 66.1201 177.793 66.132H178.793ZM178.457 65.376L179.164 64.6689C178.765 64.2701 178.256 64.068 177.701 64.068V65.068V66.068C177.718 66.068 177.728 66.0695 177.733 66.0703C177.737 66.0711 177.738 66.0717 177.737 66.0711C177.735 66.0705 177.735 66.07 177.736 66.0707C177.737 66.0714 177.742 66.0748 177.75 66.0831L178.457 65.376ZM177.701 65.068V64.068H164.261V65.068V66.068H177.701V65.068ZM164.261 65.068V64.068C163.815 64.068 163.417 63.962 163.049 63.7518L162.553 64.62L162.057 65.4882C162.734 65.8753 163.475 66.068 164.261 66.068V65.068ZM162.553 64.62L163.086 63.7738C162.714 63.5395 162.426 63.2433 162.209 62.8782L161.349 63.388L160.489 63.8978C160.87 64.5407 161.384 65.0658 162.02 65.4662L162.553 64.62ZM161.349 63.388L162.209 62.8782C162.007 62.5366 161.901 62.1542 161.901 61.708H160.901H159.901C159.901 62.4938 160.094 63.2314 160.489 63.8978L161.349 63.388ZM160.901 61.708H161.901V57.2H160.901H159.901V61.708H160.901ZM160.901 57.2H161.901C161.901 56.7538 162.007 56.3714 162.209 56.0298L161.349 55.52L160.489 55.0102C160.094 55.6766 159.901 56.4142 159.901 57.2H160.901ZM161.349 55.52L162.217 56.0161C162.432 55.6395 162.712 55.3562 163.063 55.1483L162.553 54.288L162.043 53.4277C161.386 53.8172 160.863 54.3551 160.481 55.0239L161.349 55.52ZM162.553 54.288L163.049 55.1562C163.417 54.946 163.815 54.84 164.261 54.84V53.84V52.84C163.475 52.84 162.734 53.0327 162.057 53.4198L162.553 54.288ZM164.261 53.84V54.84H177.701V53.84V52.84H164.261V53.84ZM177.701 53.84V54.84C178.147 54.84 178.53 54.9459 178.871 55.1483L179.381 54.288L179.891 53.4277C179.224 53.0328 178.487 52.84 177.701 52.84V53.84ZM179.381 54.288L178.885 55.1562C179.253 55.3663 179.535 55.6485 179.745 56.0161L180.613 55.52L181.481 55.0239C181.094 54.3462 180.555 53.807 179.877 53.4198L179.381 54.288ZM180.613 55.52L179.753 56.0298C179.955 56.3714 180.061 56.7538 180.061 57.2H181.061H182.061C182.061 56.4142 181.868 55.6766 181.473 55.0102L180.613 55.52ZM181.061 57.2H180.061V57.984H181.061H182.061V57.2H181.061ZM181.061 57.984V56.984H178.793V57.984V58.984H181.061V57.984ZM178.793 57.984H179.793V57.2H178.793H177.793V57.984H178.793ZM178.793 57.2H179.793C179.793 56.6155 179.559 56.0978 179.133 55.7068L178.457 56.444L177.781 57.1812C177.793 57.1916 177.797 57.1977 177.798 57.1988C177.799 57.1998 177.797 57.1977 177.795 57.1931C177.793 57.1886 177.792 57.185 177.792 57.1841C177.792 57.1833 177.793 57.1881 177.793 57.2H178.793ZM178.457 56.444L179.194 55.7683C178.803 55.3417 178.286 55.108 177.701 55.108V56.108V57.108C177.713 57.108 177.718 57.1091 177.717 57.1089C177.716 57.1087 177.712 57.1078 177.708 57.1058C177.703 57.1038 177.701 57.1022 177.702 57.1029C177.703 57.1037 177.709 57.1084 177.72 57.1197L178.457 56.444ZM177.701 56.108V55.108H164.261V56.108V57.108H177.701V56.108ZM164.261 56.108V55.108C163.68 55.108 163.169 55.338 162.77 55.7369L163.477 56.444L164.184 57.1511C164.216 57.1188 164.234 57.1116 164.235 57.1111C164.236 57.1105 164.238 57.1101 164.24 57.1096C164.243 57.1091 164.249 57.108 164.261 57.108V56.108ZM163.477 56.444L162.77 55.7369C162.371 56.1357 162.169 56.6446 162.169 57.2H163.169H164.169C164.169 57.1828 164.171 57.1726 164.171 57.168C164.172 57.1637 164.173 57.1629 164.172 57.1643C164.172 57.1657 164.171 57.1663 164.172 57.1653C164.172 57.1643 164.176 57.1594 164.184 57.1511L163.477 56.444ZM163.169 57.2H162.169V61.708H163.169H164.169V57.2H163.169ZM163.169 61.708H162.169C162.169 62.2634 162.371 62.7723 162.77 63.1711L163.477 62.464L164.184 61.7569C164.176 61.7486 164.172 61.7437 164.172 61.7426C164.171 61.7417 164.172 61.7423 164.172 61.7437C164.173 61.7451 164.172 61.7443 164.171 61.74C164.171 61.7354 164.169 61.7252 164.169 61.708H163.169ZM163.477 62.464L162.801 63.2012C163.206 63.5723 163.707 63.772 164.261 63.772V62.772V61.772C164.217 61.772 164.196 61.7664 164.153 61.7268L163.477 62.464ZM164.261 62.772V63.772H177.701V62.772V61.772H164.261V62.772ZM177.701 62.772V63.772C178.135 63.772 178.509 63.8809 178.848 64.0942L179.381 63.248L179.914 62.4018C179.245 61.9804 178.499 61.772 177.701 61.772V62.772ZM179.381 63.248L178.885 64.1162C179.262 64.3315 179.545 64.611 179.753 64.9618L180.613 64.452L181.473 63.9422C181.084 63.285 180.546 62.7619 179.877 62.3798L179.381 63.248ZM180.613 64.452L179.753 64.9618C179.955 65.3034 180.061 65.6858 180.061 66.132H181.061H182.061C182.061 65.3462 181.868 64.6086 181.473 63.9422L180.613 64.452ZM181.061 66.132H180.061V70.64H181.061H182.061V66.132H181.061ZM181.061 70.64H180.061C180.061 71.0862 179.955 71.4839 179.745 71.8519L180.613 72.348L181.481 72.8441C181.868 72.1667 182.061 71.4258 182.061 70.64H181.061ZM180.613 72.348L179.753 71.8382C179.545 72.189 179.262 72.4685 178.885 72.6838L179.381 73.552L179.877 74.4202C180.546 74.0381 181.084 73.515 181.473 72.8578L180.613 72.348ZM179.381 73.552L178.871 72.6917C178.53 72.8941 178.147 73 177.701 73V74V75C178.487 75 179.224 74.8072 179.891 74.4123L179.381 73.552ZM177.701 74V73H164.261V74V75H177.701V74Z" fill="black" mask="url(#path-3-outside-2_2_57)"/>
</svg>
